<?xml version="1.0" encoding="UTF-8"?>
<svg id="Capa_1" data-name="Capa 1" xmlns="http://www.w3.org/2000/svg" viewBox="0 0 2160 2160">
  <defs>
    <style>
      .cls-1 {
        fill: #f6560b;
      }
    </style>
  </defs>
  <path class="cls-1" d="M2040.35,714.31c-5.87,11.08-9.11,22.94-10.42,35.36-7.24,16.49-13.56,33.29-16.72,51.11-32.48,87.26-65.65,174.21-106.65,257.98-40.95,83.68-84.03,165.87-146.8,236.02-17.48,19.53-37.39,32.91-63.98,34.9-3.89-.92-7.79-1.83-11.69-2.75-31.3-15.03-43.37-43.4-51.24-74.46-28.04-110.62-23.49-221.67-4.05-332.89,2.42-13.85,4.63-27.75,6.94-41.62,9.66-28.6,14.39-58.35,20.36-87.81,18.1-65.14,32.92-130.77,34.92-198.85,2.01-68.19-30.17-118.17-81.41-158.57-55.15-43.47-117.42-74.62-180.39-104.8-53.61-25.69-109.02-48.02-158.6-81.56-5.79-3.92-11.2-8.52-16.31-13.3-33.51-31.31-25.97-67.88,17.69-82.19,36.77-12.06,75.24-15.15,113.59-15.2,167.37-.24,332.24,17.95,492.03,70.63,32.81,10.82,64.13,25.74,93.19,44.17,78.02,49.47,114.23,121.47,111.91,213.62-1.79,71.19-16.42,140.27-32.75,209.12-3.25,13.68-6.41,27.38-9.61,41.07Z"/>
  <path class="cls-1" d="M438.42,189.63c12.52-.72,24.34-4.08,35.64-9.4,17.86-2.35,35.5-5.64,52.38-12.17,91.47-17.41,183.03-34.07,275.92-42.38,92.8-8.31,185.41-14.03,277.93,3.33,25.76,4.83,47.52,14.94,62.99,36.66,1.23,3.81,2.47,7.61,3.7,11.42,3.35,34.56-14.66,59.58-37.16,82.4-80.11,81.28-177.46,134.9-282.66,175.88-13.11,5.11-26.13,10.41-39.2,15.62-29.47,6.55-57.37,17.91-85.66,28.07-65.1,18.26-128.92,39.57-188.18,73.12-59.37,33.6-85.46,87.01-93.48,151.76-8.62,69.69-3.01,139.09,3.78,208.58,5.78,59.16,15.38,118.13,12.37,177.92-.35,6.98-1.49,13.99-2.93,20.84-9.43,44.88-44.61,57.37-79.46,27.44-29.36-25.21-51.93-56.51-71.84-89.29-86.89-143.05-156.72-293.5-194.41-457.47-7.74-33.67-11.19-68.19-10.48-102.6,1.91-92.36,44.75-160.63,124.77-206.37,61.83-35.34,128.49-58.6,195.85-80.29,13.38-4.31,26.74-8.7,40.11-13.05Z"/>
  <path class="cls-1" d="M808.92,1848.06c-6.9-10.47-15.74-19.01-26.01-26.13-10.98-14.27-22.68-27.89-36.79-39.22-60.92-70.41-121.24-141.29-175-217.49-53.71-76.13-105.09-153.4-136.45-242.15-8.73-24.71-10.89-48.6.14-72.88,2.67-2.97,5.35-5.95,8.03-8.93,28.23-20.23,58.9-17.18,89.93-9.16,110.49,28.56,205.69,85.91,293.89,156.4,10.99,8.78,22.11,17.4,33.16,26.09,20.44,22.22,44.26,40.66,67.23,60.05,48.43,47.18,98.87,91.71,157.61,126.17,58.83,34.52,118.13,30.33,178.18,4.8,64.62-27.47,121.86-67.12,178.58-107.84,48.29-34.67,94.5-72.54,147.74-99.9,6.22-3.2,12.85-5.73,19.5-7.92,43.56-14.34,72,9.84,63.58,55-7.1,38.04-22.87,73.26-41.25,106.92-80.21,146.9-175.38,282.75-298.36,397.57-25.25,23.58-53.39,43.87-83.52,60.5-80.87,44.65-161.42,41.81-241.12-4.5-61.58-35.78-115.12-81.79-167.66-129.21-10.44-9.42-20.93-18.78-31.4-28.16Z"/>
  <circle class="cls-1" cx="1091.18" cy="940.2" r="265.21"/>
</svg>