<?xml version="1.0" encoding="UTF-8"?>
<svg id="Capa_1" data-name="Capa 1" xmlns="http://www.w3.org/2000/svg" viewBox="450 400 700 200">
  <defs>
    <style>
      .cls-1 {
        letter-spacing: .62em;
      }

      .cls-2 {
        letter-spacing: .7em;
      }

      .cls-3 {
        letter-spacing: .7em;
      }

      .cls-4 {
        letter-spacing: .68em;
      }

      .cls-5 {
        letter-spacing: .68em;
      }

      .cls-6 {
        font-family: LeniaSans-Regular, 'Lenia Sans';
        font-size: 35px;
      }

      .cls-6, .cls-7 {
        fill: #042046;
      }

      .cls-8 {
        letter-spacing: .7em;
      }
    </style>
  </defs>
  <text class="cls-6" transform="translate(594.96 578.5)"><tspan class="cls-8" x="0" y="0">P</tspan><tspan class="cls-5" x="46.13" y="0">L</tspan><tspan class="cls-1" x="87.85" y="0">A</tspan><tspan class="cls-8" x="130.58" y="0">T</tspan><tspan class="cls-4" x="174.47" y="0">F</tspan><tspan class="cls-3" x="218.79" y="0">O</tspan><tspan class="cls-2" x="270.62" y="0">RM</tspan></text>
  <g>
    <g>
      <path class="cls-7" d="M575.7,459.91c-.36.69-.56,1.42-.64,2.19-.45,1.02-.84,2.06-1.03,3.16-2.01,5.4-4.06,10.78-6.6,15.96-2.53,5.18-5.2,10.26-9.08,14.6-1.08,1.21-2.31,2.04-3.96,2.16-.24-.06-.48-.11-.72-.17-1.94-.93-2.68-2.69-3.17-4.61-1.73-6.84-1.45-13.72-.25-20.6.15-.86.29-1.72.43-2.58.6-1.77.89-3.61,1.26-5.43,1.12-4.03,2.04-8.09,2.16-12.3.12-4.22-1.87-7.31-5.04-9.81-3.41-2.69-7.27-4.62-11.16-6.48-3.32-1.59-6.75-2.97-9.81-5.05-.36-.24-.69-.53-1.01-.82-2.07-1.94-1.61-4.2,1.09-5.09,2.28-.75,4.66-.94,7.03-.94,10.36-.02,20.56,1.11,30.44,4.37,2.03.67,3.97,1.59,5.77,2.73,4.83,3.06,7.07,7.52,6.92,13.22-.11,4.4-1.02,8.68-2.03,12.94-.2.85-.4,1.69-.59,2.54Z"/>
      <path class="cls-7" d="M476.58,427.45c.77-.04,1.51-.25,2.21-.58,1.1-.15,2.2-.35,3.24-.75,5.66-1.08,11.32-2.11,17.07-2.62,5.74-.51,11.47-.87,17.2.21,1.59.3,2.94.92,3.9,2.27.08.24.15.47.23.71.21,2.14-.91,3.69-2.3,5.1-4.96,5.03-10.98,8.35-17.49,10.88-.81.32-1.62.64-2.43.97-1.82.41-3.55,1.11-5.3,1.74-4.03,1.13-7.98,2.45-11.64,4.52-3.67,2.08-5.29,5.38-5.78,9.39-.53,4.31-.19,8.61.23,12.91.36,3.66.95,7.31.77,11.01-.02.43-.09.87-.18,1.29-.58,2.78-2.76,3.55-4.92,1.7-1.82-1.56-3.21-3.5-4.44-5.53-5.38-8.85-9.7-18.16-12.03-28.31-.48-2.08-.69-4.22-.65-6.35.12-5.71,2.77-9.94,7.72-12.77,3.83-2.19,7.95-3.63,12.12-4.97.83-.27,1.65-.54,2.48-.81Z"/>
      <path class="cls-7" d="M499.5,530.06c-.43-.65-.97-1.18-1.61-1.62-.68-.88-1.4-1.73-2.28-2.43-3.77-4.36-7.5-8.74-10.83-13.46-3.32-4.71-6.5-9.49-8.44-14.98-.54-1.53-.67-3.01,0-4.51.17-.18.33-.37.5-.55,1.75-1.25,3.64-1.06,5.56-.57,6.84,1.77,12.73,5.32,18.18,9.68.68.54,1.37,1.08,2.05,1.61,1.26,1.37,2.74,2.52,4.16,3.72,3,2.92,6.12,5.67,9.75,7.81,3.64,2.14,7.31,1.88,11.02.3,4-1.7,7.54-4.15,11.05-6.67,2.99-2.14,5.85-4.49,9.14-6.18.38-.2.8-.35,1.21-.49,2.7-.89,4.46.61,3.93,3.4-.44,2.35-1.41,4.53-2.55,6.62-4.96,9.09-10.85,17.49-18.46,24.6-1.56,1.46-3.3,2.71-5.17,3.74-5,2.76-9.99,2.59-14.92-.28-3.81-2.21-7.12-5.06-10.37-7.99-.65-.58-1.3-1.16-1.94-1.74Z"/>
      <circle class="cls-7" cx="516.97" cy="473.89" r="16.41"/>
    </g>
    <g>
      <path class="cls-7" d="M857.7,523.49c-7.05,1.24-13.21.21-19.91.69l-25.11-29.81c-4.93,4.53-10.35,8.19-14.07,13.16-1.74,4.97.13,10.93-.84,16.36l-17.1.06.1-98.96,17.07.17.14,62.72,37.12-34.7c6.68-.1,12.91-.43,19.71.15l-29.83,30.22,32.72,39.94Z"/>
      <path class="cls-7" d="M1081.06,495.45c-5.49,28.69-37.41,34.95-59.24,26.88-15.95-5.89-25.11-21.18-23.24-37.82,3.06-27.28,30.2-36.54,54.45-31.21,19.66,4.32,31.79,22.48,28.03,42.15ZM1064.15,488.68c0-13.36-10.83-24.19-24.19-24.19s-24.19,10.83-24.19,24.19,10.83,24.19,24.19,24.19,24.19-10.83,24.19-24.19Z"/>
      <path class="cls-7" d="M714.22,508.46c11.53,6.93,26.18,4.92,36.4-3.55l9.28,9.14c-11.35,12.48-34.25,13.59-48.95,8.34-15.42-5.51-24.4-19.42-23.5-35.68.81-14.57,9.34-27.07,23.2-32.02,20.28-7.23,46.19-1.07,52.61,21.93,1.59,5.71,1.89,11.23,1.77,17.27l-59.92.02c.23,5.83,3.58,11.23,9.1,14.54ZM748.97,483.25c-.95-9.22-6.45-14.96-13.99-17.45-7.09-2.26-14.92-1.81-21.24,2.32-5.11,3.34-8.2,8.66-8.84,15.21l44.07-.08Z"/>
      <path class="cls-7" d="M934.64,468.07c-6,2.69-10.35,8-10.44,14.51l-.59,41.43-17.06-.14.11-70.72h16.76s.2,10.31.2,10.31c9.13-11.29,24.11-13.23,36.74-10.7,12.97,2.6,21.92,13.02,21.99,26.49l.23,44.84-17.24-.23-.05-40.18c0-6.44-3.04-12.99-8.99-15.77-6.71-3.14-14.69-2.95-21.65.17Z"/>
      <path class="cls-7" d="M669.02,453.19l17.4.11-20.09,44.2-12.18,26.45-17.63.09-32.67-70.81,18.28-.09,23.19,53.04c5.96-11.4,10.53-22.7,15.54-34.22l8.15-18.76Z"/>
      <rect class="cls-7" x="840.68" y="479.95" width="71.05" height="17.29" transform="translate(387.18 1364.56) rotate(-89.97)"/>
      <circle class="cls-7" cx="875.95" cy="428.53" r="11.11"/>
    </g>
  </g>
</svg>